<mxfile host="app.diagrams.net" agent="Mozilla/5.0 (Windows NT 10.0; Win64; x64; rv:135.0) Gecko/20100101 Firefox/135.0" version="26.0.16">
  <diagram name="Page-1" id="PQdFNrRTIFDckVssk8G5">
    <mxGraphModel dx="1020" dy="745" grid="1" gridSize="10" guides="1" tooltips="1" connect="1" arrows="1" fold="1" page="0" pageScale="1" pageWidth="1169" pageHeight="827" math="0" shadow="0">
      <root>
        <mxCell id="0" />
        <mxCell id="1" parent="0" />
        <UserObject label="%name%" name="Organization and Retrieval Barrier" placeholders="1" id="pWWIoXjgKV-4vE8Mswgo-612">
          <mxCell style="shape=hexagon;fillColor=#ffddc1;strokeColor=#d2691e;perimeter=hexagonPerimeter;" vertex="1" parent="1">
            <mxGeometry x="1963.529411764706" y="310" width="200" height="30" as="geometry" />
          </mxCell>
        </UserObject>
        <UserObject label="%name%" name="Enhance Structuring Techniques" placeholders="1" id="pWWIoXjgKV-4vE8Mswgo-613">
          <mxCell style="shape=trapezoid;fillColor=#e6e6fa;strokeColor=#483d8b;perimeter=trapezoidPerimeter;" vertex="1" parent="1">
            <mxGeometry x="418.2352941176471" y="510" width="200" height="30" as="geometry" />
          </mxCell>
        </UserObject>
        <UserObject label="%name%" name="Dynamic Tagging System" placeholders="1" id="pWWIoXjgKV-4vE8Mswgo-614">
          <mxCell style="shape=ellipse;fillColor=#d0f0c0;strokeColor=#6b8e23;perimeter=ellipsePerimeter;" vertex="1" parent="1">
            <mxGeometry x="100" y="710" width="160" height="30" as="geometry" />
          </mxCell>
        </UserObject>
        <UserObject label="%name%" name="Use adaptive tags" placeholders="1" id="pWWIoXjgKV-4vE8Mswgo-615">
          <mxCell style="shape=parallelogram;fillColor=#b0e0e6;strokeColor=#4682b4;perimeter=parallelogramPerimeter;" vertex="1" parent="1">
            <mxGeometry x="20" y="910" width="120" height="30" as="geometry" />
          </mxCell>
        </UserObject>
        <UserObject label="%name%" name="Example: Innovation/2025" placeholders="1" id="pWWIoXjgKV-4vE8Mswgo-616">
          <mxCell style="shape=parallelogram;fillColor=#b0e0e6;strokeColor=#4682b4;perimeter=parallelogramPerimeter;" vertex="1" parent="1">
            <mxGeometry x="180" y="910" width="160" height="30" as="geometry" />
          </mxCell>
        </UserObject>
        <UserObject label="%name%" name="Visual Mapping Tools" placeholders="1" id="pWWIoXjgKV-4vE8Mswgo-617">
          <mxCell style="shape=ellipse;fillColor=#d0f0c0;strokeColor=#6b8e23;perimeter=ellipsePerimeter;" vertex="1" parent="1">
            <mxGeometry x="457.3529411764705" y="710" width="140" height="30" as="geometry" />
          </mxCell>
        </UserObject>
        <UserObject label="%name%" name="Use graph software" placeholders="1" id="pWWIoXjgKV-4vE8Mswgo-618">
          <mxCell style="shape=parallelogram;fillColor=#b0e0e6;strokeColor=#4682b4;perimeter=parallelogramPerimeter;" vertex="1" parent="1">
            <mxGeometry x="388.2352941176471" y="910" width="130" height="30" as="geometry" />
          </mxCell>
        </UserObject>
        <UserObject label="%name%" name="Weekly review" placeholders="1" id="pWWIoXjgKV-4vE8Mswgo-619">
          <mxCell style="shape=rectangle;fillColor=#f0e68c;strokeColor=#cd853f;perimeter=rectanglePerimeter;" vertex="1" parent="1">
            <mxGeometry x="566.4705882352941" y="910" width="100" height="30" as="geometry" />
          </mxCell>
        </UserObject>
        <UserObject label="%name%" name="Contextual Linking" placeholders="1" id="pWWIoXjgKV-4vE8Mswgo-620">
          <mxCell style="shape=ellipse;fillColor=#d0f0c0;strokeColor=#6b8e23;perimeter=ellipsePerimeter;" vertex="1" parent="1">
            <mxGeometry x="816.4705882352939" y="710" width="120" height="30" as="geometry" />
          </mxCell>
        </UserObject>
        <UserObject label="%name%" name="Add why/how annotations" placeholders="1" id="pWWIoXjgKV-4vE8Mswgo-621">
          <mxCell style="shape=parallelogram;fillColor=#b0e0e6;strokeColor=#4682b4;perimeter=parallelogramPerimeter;" vertex="1" parent="1">
            <mxGeometry x="706.4705882352939" y="910" width="160" height="30" as="geometry" />
          </mxCell>
        </UserObject>
        <UserObject label="%name%" name="Example: Note A â†’ B" placeholders="1" id="pWWIoXjgKV-4vE8Mswgo-622">
          <mxCell style="shape=parallelogram;fillColor=#b0e0e6;strokeColor=#4682b4;perimeter=parallelogramPerimeter;" vertex="1" parent="1">
            <mxGeometry x="906.4705882352939" y="910" width="140" height="30" as="geometry" />
          </mxCell>
        </UserObject>
        <UserObject label="%name%" name="Streamline Retrieval Processes" placeholders="1" id="pWWIoXjgKV-4vE8Mswgo-623">
          <mxCell style="shape=trapezoid;fillColor=#e6e6fa;strokeColor=#483d8b;perimeter=trapezoidPerimeter;" vertex="1" parent="1">
            <mxGeometry x="1451.029411764706" y="510" width="190" height="30" as="geometry" />
          </mxCell>
        </UserObject>
        <UserObject label="%name%" name="AI-Powered Search" placeholders="1" id="pWWIoXjgKV-4vE8Mswgo-624">
          <mxCell style="shape=ellipse;fillColor=#d0f0c0;strokeColor=#6b8e23;perimeter=ellipsePerimeter;" vertex="1" parent="1">
            <mxGeometry x="1163.2352941176473" y="710" width="130" height="30" as="geometry" />
          </mxCell>
        </UserObject>
        <UserObject label="%name%" name="Integrate NLP tools" placeholders="1" id="pWWIoXjgKV-4vE8Mswgo-625">
          <mxCell style="shape=parallelogram;fillColor=#b0e0e6;strokeColor=#4682b4;perimeter=parallelogramPerimeter;" vertex="1" parent="1">
            <mxGeometry x="1087.6470588235295" y="910" width="130" height="30" as="geometry" />
          </mxCell>
        </UserObject>
        <UserObject label="%name%" name="Test by Q2 2025" placeholders="1" id="pWWIoXjgKV-4vE8Mswgo-626">
          <mxCell style="shape=rectangle;fillColor=#f0e68c;strokeColor=#cd853f;perimeter=rectanglePerimeter;" vertex="1" parent="1">
            <mxGeometry x="1258.8235294117649" y="910" width="110" height="30" as="geometry" />
          </mxCell>
        </UserObject>
        <UserObject label="%name%" name="Retrieval Rituals" placeholders="1" id="pWWIoXjgKV-4vE8Mswgo-627">
          <mxCell style="shape=ellipse;fillColor=#d0f0c0;strokeColor=#6b8e23;perimeter=ellipsePerimeter;" vertex="1" parent="1">
            <mxGeometry x="1483.8235294117649" y="710" width="110" height="30" as="geometry" />
          </mxCell>
        </UserObject>
        <UserObject label="%name%" name="Write index cards" placeholders="1" id="pWWIoXjgKV-4vE8Mswgo-628">
          <mxCell style="shape=parallelogram;fillColor=#b0e0e6;strokeColor=#4682b4;perimeter=parallelogramPerimeter;" vertex="1" parent="1">
            <mxGeometry x="1408.8235294117649" y="910" width="120" height="30" as="geometry" />
          </mxCell>
        </UserObject>
        <UserObject label="%name%" name="10 min weekly" placeholders="1" id="pWWIoXjgKV-4vE8Mswgo-629">
          <mxCell style="shape=rectangle;fillColor=#f0e68c;strokeColor=#cd853f;perimeter=rectanglePerimeter;" vertex="1" parent="1">
            <mxGeometry x="1568.8235294117649" y="910" width="100" height="30" as="geometry" />
          </mxCell>
        </UserObject>
        <UserObject label="%name%" name="Predictive Retrieval" placeholders="1" id="pWWIoXjgKV-4vE8Mswgo-630">
          <mxCell style="shape=ellipse;fillColor=#d0f0c0;strokeColor=#6b8e23;perimeter=ellipsePerimeter;" vertex="1" parent="1">
            <mxGeometry x="1798.8235294117649" y="710" width="130" height="30" as="geometry" />
          </mxCell>
        </UserObject>
        <UserObject label="%name%" name="Use ML suggestions" placeholders="1" id="pWWIoXjgKV-4vE8Mswgo-631">
          <mxCell style="shape=parallelogram;fillColor=#b0e0e6;strokeColor=#4682b4;perimeter=parallelogramPerimeter;" vertex="1" parent="1">
            <mxGeometry x="1708.8235294117649" y="910" width="130" height="30" as="geometry" />
          </mxCell>
        </UserObject>
        <UserObject label="%name%" name="Example: Task-based" placeholders="1" id="pWWIoXjgKV-4vE8Mswgo-632">
          <mxCell style="shape=parallelogram;fillColor=#b0e0e6;strokeColor=#4682b4;perimeter=parallelogramPerimeter;" vertex="1" parent="1">
            <mxGeometry x="1878.8235294117649" y="910" width="140" height="30" as="geometry" />
          </mxCell>
        </UserObject>
        <UserObject label="%name%" name="Foster Creative Organization" placeholders="1" id="pWWIoXjgKV-4vE8Mswgo-633">
          <mxCell style="shape=trapezoid;fillColor=#e6e6fa;strokeColor=#483d8b;perimeter=trapezoidPerimeter;" vertex="1" parent="1">
            <mxGeometry x="2493.823529411765" y="510" width="180" height="30" as="geometry" />
          </mxCell>
        </UserObject>
        <UserObject label="%name%" name="Lateral Thinking Prompts" placeholders="1" id="pWWIoXjgKV-4vE8Mswgo-634">
          <mxCell style="shape=ellipse;fillColor=#d0f0c0;strokeColor=#6b8e23;perimeter=ellipsePerimeter;" vertex="1" parent="1">
            <mxGeometry x="2143.823529411765" y="710" width="160" height="30" as="geometry" />
          </mxCell>
        </UserObject>
        <UserObject label="%name%" name="Add creative prompts" placeholders="1" id="pWWIoXjgKV-4vE8Mswgo-635">
          <mxCell style="shape=parallelogram;fillColor=#b0e0e6;strokeColor=#4682b4;perimeter=parallelogramPerimeter;" vertex="1" parent="1">
            <mxGeometry x="2058.823529411765" y="910" width="140" height="30" as="geometry" />
          </mxCell>
        </UserObject>
        <UserObject label="%name%" name="Review 5 notes monthly" placeholders="1" id="pWWIoXjgKV-4vE8Mswgo-636">
          <mxCell style="shape=rectangle;fillColor=#f0e68c;strokeColor=#cd853f;perimeter=rectanglePerimeter;" vertex="1" parent="1">
            <mxGeometry x="2238.823529411765" y="910" width="150" height="30" as="geometry" />
          </mxCell>
        </UserObject>
        <UserObject label="%name%" name="Gamify Categorization" placeholders="1" id="pWWIoXjgKV-4vE8Mswgo-637">
          <mxCell style="shape=ellipse;fillColor=#d0f0c0;strokeColor=#6b8e23;perimeter=ellipsePerimeter;" vertex="1" parent="1">
            <mxGeometry x="2518.823529411765" y="710" width="140" height="30" as="geometry" />
          </mxCell>
        </UserObject>
        <UserObject label="%name%" name="Link 10 nodes game" placeholders="1" id="pWWIoXjgKV-4vE8Mswgo-638">
          <mxCell style="shape=parallelogram;fillColor=#b0e0e6;strokeColor=#4682b4;perimeter=parallelogramPerimeter;" vertex="1" parent="1">
            <mxGeometry x="2428.823529411765" y="910" width="130" height="30" as="geometry" />
          </mxCell>
        </UserObject>
        <UserObject label="%name%" name="Goal: 20% engagement" placeholders="1" id="pWWIoXjgKV-4vE8Mswgo-639">
          <mxCell style="shape=rectangle;fillColor=#f0e68c;strokeColor=#cd853f;perimeter=rectanglePerimeter;" vertex="1" parent="1">
            <mxGeometry x="2598.823529411765" y="910" width="150" height="30" as="geometry" />
          </mxCell>
        </UserObject>
        <UserObject label="%name%" name="Storytelling Frameworks" placeholders="1" id="pWWIoXjgKV-4vE8Mswgo-640">
          <mxCell style="shape=ellipse;fillColor=#d0f0c0;strokeColor=#6b8e23;perimeter=ellipsePerimeter;" vertex="1" parent="1">
            <mxGeometry x="2873.823529411765" y="710" width="150" height="30" as="geometry" />
          </mxCell>
        </UserObject>
        <UserObject label="%name%" name="Narrative arcs" placeholders="1" id="pWWIoXjgKV-4vE8Mswgo-641">
          <mxCell style="shape=parallelogram;fillColor=#b0e0e6;strokeColor=#4682b4;perimeter=parallelogramPerimeter;" vertex="1" parent="1">
            <mxGeometry x="2788.823529411765" y="910" width="100" height="30" as="geometry" />
          </mxCell>
        </UserObject>
        <UserObject label="%name%" name="Example: Problem â†’ Solution" placeholders="1" id="pWWIoXjgKV-4vE8Mswgo-642">
          <mxCell style="shape=parallelogram;fillColor=#b0e0e6;strokeColor=#4682b4;perimeter=parallelogramPerimeter;" vertex="1" parent="1">
            <mxGeometry x="2928.823529411765" y="910" width="180" height="30" as="geometry" />
          </mxCell>
        </UserObject>
        <UserObject label="%name%" name="Action Planning" placeholders="1" id="pWWIoXjgKV-4vE8Mswgo-643">
          <mxCell style="shape=trapezoid;fillColor=#e6e6fa;strokeColor=#483d8b;perimeter=trapezoidPerimeter;" vertex="1" parent="1">
            <mxGeometry x="3598.823529411765" y="510" width="110" height="30" as="geometry" />
          </mxCell>
        </UserObject>
        <UserObject label="%name%" name="Short-Term Goals" placeholders="1" id="pWWIoXjgKV-4vE8Mswgo-644">
          <mxCell style="shape=ellipse;fillColor=#d0f0c0;strokeColor=#6b8e23;perimeter=ellipsePerimeter;" vertex="1" parent="1">
            <mxGeometry x="3238.823529411765" y="710" width="120" height="30" as="geometry" />
          </mxCell>
        </UserObject>
        <UserObject label="%name%" name="Tag 50% by April 4" placeholders="1" id="pWWIoXjgKV-4vE8Mswgo-645">
          <mxCell style="shape=parallelogram;fillColor=#b0e0e6;strokeColor=#4682b4;perimeter=parallelogramPerimeter;" vertex="1" parent="1">
            <mxGeometry x="3148.823529411765" y="910" width="120" height="30" as="geometry" />
          </mxCell>
        </UserObject>
        <UserObject label="%name%" name="Test AI by mid-March" placeholders="1" id="pWWIoXjgKV-4vE8Mswgo-646">
          <mxCell style="shape=rectangle;fillColor=#f0e68c;strokeColor=#cd853f;perimeter=rectanglePerimeter;" vertex="1" parent="1">
            <mxGeometry x="3308.823529411765" y="910" width="140" height="30" as="geometry" />
          </mxCell>
        </UserObject>
        <UserObject label="%name%" name="Mid-Term Goals" placeholders="1" id="pWWIoXjgKV-4vE8Mswgo-647">
          <mxCell style="shape=ellipse;fillColor=#d0f0c0;strokeColor=#6b8e23;perimeter=ellipsePerimeter;" vertex="1" parent="1">
            <mxGeometry x="3603.823529411765" y="710" width="110" height="30" as="geometry" />
          </mxCell>
        </UserObject>
        <UserObject label="%name%" name="Visualize graph by June" placeholders="1" id="pWWIoXjgKV-4vE8Mswgo-648">
          <mxCell style="shape=parallelogram;fillColor=#b0e0e6;strokeColor=#4682b4;perimeter=parallelogramPerimeter;" vertex="1" parent="1">
            <mxGeometry x="3488.823529411765" y="910" width="150" height="30" as="geometry" />
          </mxCell>
        </UserObject>
        <UserObject label="%name%" name="Weekly ritual from April" placeholders="1" id="pWWIoXjgKV-4vE8Mswgo-649">
          <mxCell style="shape=rectangle;fillColor=#f0e68c;strokeColor=#cd853f;perimeter=rectanglePerimeter;" vertex="1" parent="1">
            <mxGeometry x="3678.823529411765" y="910" width="150" height="30" as="geometry" />
          </mxCell>
        </UserObject>
        <UserObject label="%name%" name="Long-Term Goals" placeholders="1" id="pWWIoXjgKV-4vE8Mswgo-650">
          <mxCell style="shape=ellipse;fillColor=#d0f0c0;strokeColor=#6b8e23;perimeter=ellipsePerimeter;" vertex="1" parent="1">
            <mxGeometry x="3948.823529411765" y="710" width="120" height="30" as="geometry" />
          </mxCell>
        </UserObject>
        <UserObject label="%name%" name="90% accuracy by July" placeholders="1" id="pWWIoXjgKV-4vE8Mswgo-651">
          <mxCell style="shape=parallelogram;fillColor=#b0e0e6;strokeColor=#4682b4;perimeter=parallelogramPerimeter;" vertex="1" parent="1">
            <mxGeometry x="3868.823529411765" y="910" width="140" height="30" as="geometry" />
          </mxCell>
        </UserObject>
        <UserObject label="%name%" name="KM handbook" placeholders="1" id="pWWIoXjgKV-4vE8Mswgo-652">
          <mxCell style="shape=rectangle;fillColor=#f0e68c;strokeColor=#cd853f;perimeter=rectanglePerimeter;" vertex="1" parent="1">
            <mxGeometry x="4048.823529411765" y="910" width="100" height="30" as="geometry" />
          </mxCell>
        </UserObject>
        <UserObject label="%name%" name="Graph-Based Tools e.g. Obsidian" placeholders="1" id="pWWIoXjgKV-4vE8Mswgo-653">
          <mxCell style="shape=rectangle;fillColor=#ffd700;strokeColor=#daa520;perimeter=rectanglePerimeter;" vertex="1" parent="1">
            <mxGeometry x="353.2352941176471" y="1110" width="200" height="30" as="geometry" />
          </mxCell>
        </UserObject>
        <UserObject label="%name%" name="AI Tools e.g. ChatGPT" placeholders="1" id="pWWIoXjgKV-4vE8Mswgo-654">
          <mxCell style="shape=rectangle;fillColor=#ffd700;strokeColor=#daa520;perimeter=rectanglePerimeter;" vertex="1" parent="1">
            <mxGeometry x="1082.6470588235295" y="1110" width="140" height="30" as="geometry" />
          </mxCell>
        </UserObject>
        <UserObject label="%name%" name="ML Platforms" placeholders="1" id="pWWIoXjgKV-4vE8Mswgo-655">
          <mxCell style="shape=rectangle;fillColor=#ffd700;strokeColor=#daa520;perimeter=rectanglePerimeter;" vertex="1" parent="1">
            <mxGeometry x="1728.8235294117649" y="1110" width="90" height="30" as="geometry" />
          </mxCell>
        </UserObject>
        <mxCell id="pWWIoXjgKV-4vE8Mswgo-656" value="" style="curved=1;endArrow=blockThin;startArrow=none;strokeColor=#999999;endFill=1;" edge="1" parent="1" source="pWWIoXjgKV-4vE8Mswgo-612" target="pWWIoXjgKV-4vE8Mswgo-613">
          <mxGeometry relative="1" as="geometry" />
        </mxCell>
        <mxCell id="pWWIoXjgKV-4vE8Mswgo-657" value="" style="curved=1;endArrow=blockThin;startArrow=none;strokeColor=#999999;endFill=1;" edge="1" parent="1" source="pWWIoXjgKV-4vE8Mswgo-613" target="pWWIoXjgKV-4vE8Mswgo-614">
          <mxGeometry relative="1" as="geometry" />
        </mxCell>
        <mxCell id="pWWIoXjgKV-4vE8Mswgo-658" value="" style="curved=1;endArrow=blockThin;startArrow=none;strokeColor=#999999;endFill=1;" edge="1" parent="1" source="pWWIoXjgKV-4vE8Mswgo-614" target="pWWIoXjgKV-4vE8Mswgo-615">
          <mxGeometry relative="1" as="geometry" />
        </mxCell>
        <mxCell id="pWWIoXjgKV-4vE8Mswgo-659" value="" style="curved=1;endArrow=blockThin;startArrow=none;strokeColor=#999999;endFill=1;" edge="1" parent="1" source="pWWIoXjgKV-4vE8Mswgo-614" target="pWWIoXjgKV-4vE8Mswgo-616">
          <mxGeometry relative="1" as="geometry" />
        </mxCell>
        <mxCell id="pWWIoXjgKV-4vE8Mswgo-660" value="" style="curved=1;endArrow=blockThin;startArrow=none;strokeColor=#999999;endFill=1;" edge="1" parent="1" source="pWWIoXjgKV-4vE8Mswgo-613" target="pWWIoXjgKV-4vE8Mswgo-617">
          <mxGeometry relative="1" as="geometry" />
        </mxCell>
        <mxCell id="pWWIoXjgKV-4vE8Mswgo-661" value="" style="curved=1;endArrow=blockThin;startArrow=none;strokeColor=#999999;endFill=1;" edge="1" parent="1" source="pWWIoXjgKV-4vE8Mswgo-617" target="pWWIoXjgKV-4vE8Mswgo-618">
          <mxGeometry relative="1" as="geometry" />
        </mxCell>
        <mxCell id="pWWIoXjgKV-4vE8Mswgo-662" value="" style="curved=1;endArrow=blockThin;startArrow=none;strokeColor=#999999;endFill=1;" edge="1" parent="1" source="pWWIoXjgKV-4vE8Mswgo-617" target="pWWIoXjgKV-4vE8Mswgo-619">
          <mxGeometry relative="1" as="geometry" />
        </mxCell>
        <mxCell id="pWWIoXjgKV-4vE8Mswgo-663" value="" style="curved=1;endArrow=blockThin;startArrow=none;strokeColor=#999999;endFill=1;" edge="1" parent="1" source="pWWIoXjgKV-4vE8Mswgo-613" target="pWWIoXjgKV-4vE8Mswgo-620">
          <mxGeometry relative="1" as="geometry" />
        </mxCell>
        <mxCell id="pWWIoXjgKV-4vE8Mswgo-664" value="" style="curved=1;endArrow=blockThin;startArrow=none;strokeColor=#999999;endFill=1;" edge="1" parent="1" source="pWWIoXjgKV-4vE8Mswgo-620" target="pWWIoXjgKV-4vE8Mswgo-621">
          <mxGeometry relative="1" as="geometry" />
        </mxCell>
        <mxCell id="pWWIoXjgKV-4vE8Mswgo-665" value="" style="curved=1;endArrow=blockThin;startArrow=none;strokeColor=#999999;endFill=1;" edge="1" parent="1" source="pWWIoXjgKV-4vE8Mswgo-620" target="pWWIoXjgKV-4vE8Mswgo-622">
          <mxGeometry relative="1" as="geometry" />
        </mxCell>
        <mxCell id="pWWIoXjgKV-4vE8Mswgo-666" value="" style="curved=1;endArrow=blockThin;startArrow=none;strokeColor=#999999;endFill=1;" edge="1" parent="1" source="pWWIoXjgKV-4vE8Mswgo-612" target="pWWIoXjgKV-4vE8Mswgo-623">
          <mxGeometry relative="1" as="geometry" />
        </mxCell>
        <mxCell id="pWWIoXjgKV-4vE8Mswgo-667" value="" style="curved=1;endArrow=blockThin;startArrow=none;strokeColor=#999999;endFill=1;" edge="1" parent="1" source="pWWIoXjgKV-4vE8Mswgo-623" target="pWWIoXjgKV-4vE8Mswgo-624">
          <mxGeometry relative="1" as="geometry" />
        </mxCell>
        <mxCell id="pWWIoXjgKV-4vE8Mswgo-668" value="" style="curved=1;endArrow=blockThin;startArrow=none;strokeColor=#999999;endFill=1;" edge="1" parent="1" source="pWWIoXjgKV-4vE8Mswgo-624" target="pWWIoXjgKV-4vE8Mswgo-625">
          <mxGeometry relative="1" as="geometry" />
        </mxCell>
        <mxCell id="pWWIoXjgKV-4vE8Mswgo-669" value="" style="curved=1;endArrow=blockThin;startArrow=none;strokeColor=#999999;endFill=1;" edge="1" parent="1" source="pWWIoXjgKV-4vE8Mswgo-624" target="pWWIoXjgKV-4vE8Mswgo-626">
          <mxGeometry relative="1" as="geometry" />
        </mxCell>
        <mxCell id="pWWIoXjgKV-4vE8Mswgo-670" value="" style="curved=1;endArrow=blockThin;startArrow=none;strokeColor=#999999;endFill=1;" edge="1" parent="1" source="pWWIoXjgKV-4vE8Mswgo-623" target="pWWIoXjgKV-4vE8Mswgo-627">
          <mxGeometry relative="1" as="geometry" />
        </mxCell>
        <mxCell id="pWWIoXjgKV-4vE8Mswgo-671" value="" style="curved=1;endArrow=blockThin;startArrow=none;strokeColor=#999999;endFill=1;" edge="1" parent="1" source="pWWIoXjgKV-4vE8Mswgo-627" target="pWWIoXjgKV-4vE8Mswgo-628">
          <mxGeometry relative="1" as="geometry" />
        </mxCell>
        <mxCell id="pWWIoXjgKV-4vE8Mswgo-672" value="" style="curved=1;endArrow=blockThin;startArrow=none;strokeColor=#999999;endFill=1;" edge="1" parent="1" source="pWWIoXjgKV-4vE8Mswgo-627" target="pWWIoXjgKV-4vE8Mswgo-629">
          <mxGeometry relative="1" as="geometry" />
        </mxCell>
        <mxCell id="pWWIoXjgKV-4vE8Mswgo-673" value="" style="curved=1;endArrow=blockThin;startArrow=none;strokeColor=#999999;endFill=1;" edge="1" parent="1" source="pWWIoXjgKV-4vE8Mswgo-623" target="pWWIoXjgKV-4vE8Mswgo-630">
          <mxGeometry relative="1" as="geometry" />
        </mxCell>
        <mxCell id="pWWIoXjgKV-4vE8Mswgo-674" value="" style="curved=1;endArrow=blockThin;startArrow=none;strokeColor=#999999;endFill=1;" edge="1" parent="1" source="pWWIoXjgKV-4vE8Mswgo-630" target="pWWIoXjgKV-4vE8Mswgo-631">
          <mxGeometry relative="1" as="geometry" />
        </mxCell>
        <mxCell id="pWWIoXjgKV-4vE8Mswgo-675" value="" style="curved=1;endArrow=blockThin;startArrow=none;strokeColor=#999999;endFill=1;" edge="1" parent="1" source="pWWIoXjgKV-4vE8Mswgo-630" target="pWWIoXjgKV-4vE8Mswgo-632">
          <mxGeometry relative="1" as="geometry" />
        </mxCell>
        <mxCell id="pWWIoXjgKV-4vE8Mswgo-676" value="" style="curved=1;endArrow=blockThin;startArrow=none;strokeColor=#999999;endFill=1;" edge="1" parent="1" source="pWWIoXjgKV-4vE8Mswgo-612" target="pWWIoXjgKV-4vE8Mswgo-633">
          <mxGeometry relative="1" as="geometry" />
        </mxCell>
        <mxCell id="pWWIoXjgKV-4vE8Mswgo-677" value="" style="curved=1;endArrow=blockThin;startArrow=none;strokeColor=#999999;endFill=1;" edge="1" parent="1" source="pWWIoXjgKV-4vE8Mswgo-633" target="pWWIoXjgKV-4vE8Mswgo-634">
          <mxGeometry relative="1" as="geometry" />
        </mxCell>
        <mxCell id="pWWIoXjgKV-4vE8Mswgo-678" value="" style="curved=1;endArrow=blockThin;startArrow=none;strokeColor=#999999;endFill=1;" edge="1" parent="1" source="pWWIoXjgKV-4vE8Mswgo-634" target="pWWIoXjgKV-4vE8Mswgo-635">
          <mxGeometry relative="1" as="geometry" />
        </mxCell>
        <mxCell id="pWWIoXjgKV-4vE8Mswgo-679" value="" style="curved=1;endArrow=blockThin;startArrow=none;strokeColor=#999999;endFill=1;" edge="1" parent="1" source="pWWIoXjgKV-4vE8Mswgo-634" target="pWWIoXjgKV-4vE8Mswgo-636">
          <mxGeometry relative="1" as="geometry" />
        </mxCell>
        <mxCell id="pWWIoXjgKV-4vE8Mswgo-680" value="" style="curved=1;endArrow=blockThin;startArrow=none;strokeColor=#999999;endFill=1;" edge="1" parent="1" source="pWWIoXjgKV-4vE8Mswgo-633" target="pWWIoXjgKV-4vE8Mswgo-637">
          <mxGeometry relative="1" as="geometry" />
        </mxCell>
        <mxCell id="pWWIoXjgKV-4vE8Mswgo-681" value="" style="curved=1;endArrow=blockThin;startArrow=none;strokeColor=#999999;endFill=1;" edge="1" parent="1" source="pWWIoXjgKV-4vE8Mswgo-637" target="pWWIoXjgKV-4vE8Mswgo-638">
          <mxGeometry relative="1" as="geometry" />
        </mxCell>
        <mxCell id="pWWIoXjgKV-4vE8Mswgo-682" value="" style="curved=1;endArrow=blockThin;startArrow=none;strokeColor=#999999;endFill=1;" edge="1" parent="1" source="pWWIoXjgKV-4vE8Mswgo-637" target="pWWIoXjgKV-4vE8Mswgo-639">
          <mxGeometry relative="1" as="geometry" />
        </mxCell>
        <mxCell id="pWWIoXjgKV-4vE8Mswgo-683" value="" style="curved=1;endArrow=blockThin;startArrow=none;strokeColor=#999999;endFill=1;" edge="1" parent="1" source="pWWIoXjgKV-4vE8Mswgo-633" target="pWWIoXjgKV-4vE8Mswgo-640">
          <mxGeometry relative="1" as="geometry" />
        </mxCell>
        <mxCell id="pWWIoXjgKV-4vE8Mswgo-684" value="" style="curved=1;endArrow=blockThin;startArrow=none;strokeColor=#999999;endFill=1;" edge="1" parent="1" source="pWWIoXjgKV-4vE8Mswgo-640" target="pWWIoXjgKV-4vE8Mswgo-641">
          <mxGeometry relative="1" as="geometry" />
        </mxCell>
        <mxCell id="pWWIoXjgKV-4vE8Mswgo-685" value="" style="curved=1;endArrow=blockThin;startArrow=none;strokeColor=#999999;endFill=1;" edge="1" parent="1" source="pWWIoXjgKV-4vE8Mswgo-640" target="pWWIoXjgKV-4vE8Mswgo-642">
          <mxGeometry relative="1" as="geometry" />
        </mxCell>
        <mxCell id="pWWIoXjgKV-4vE8Mswgo-686" value="" style="curved=1;endArrow=blockThin;startArrow=none;strokeColor=#999999;endFill=1;" edge="1" parent="1" source="pWWIoXjgKV-4vE8Mswgo-612" target="pWWIoXjgKV-4vE8Mswgo-643">
          <mxGeometry relative="1" as="geometry" />
        </mxCell>
        <mxCell id="pWWIoXjgKV-4vE8Mswgo-687" value="" style="curved=1;endArrow=blockThin;startArrow=none;strokeColor=#999999;endFill=1;" edge="1" parent="1" source="pWWIoXjgKV-4vE8Mswgo-643" target="pWWIoXjgKV-4vE8Mswgo-644">
          <mxGeometry relative="1" as="geometry" />
        </mxCell>
        <mxCell id="pWWIoXjgKV-4vE8Mswgo-688" value="" style="curved=1;endArrow=blockThin;startArrow=none;strokeColor=#999999;endFill=1;" edge="1" parent="1" source="pWWIoXjgKV-4vE8Mswgo-644" target="pWWIoXjgKV-4vE8Mswgo-645">
          <mxGeometry relative="1" as="geometry" />
        </mxCell>
        <mxCell id="pWWIoXjgKV-4vE8Mswgo-689" value="" style="curved=1;endArrow=blockThin;startArrow=none;strokeColor=#999999;endFill=1;" edge="1" parent="1" source="pWWIoXjgKV-4vE8Mswgo-644" target="pWWIoXjgKV-4vE8Mswgo-646">
          <mxGeometry relative="1" as="geometry" />
        </mxCell>
        <mxCell id="pWWIoXjgKV-4vE8Mswgo-690" value="" style="curved=1;endArrow=blockThin;startArrow=none;strokeColor=#999999;endFill=1;" edge="1" parent="1" source="pWWIoXjgKV-4vE8Mswgo-643" target="pWWIoXjgKV-4vE8Mswgo-647">
          <mxGeometry relative="1" as="geometry" />
        </mxCell>
        <mxCell id="pWWIoXjgKV-4vE8Mswgo-691" value="" style="curved=1;endArrow=blockThin;startArrow=none;strokeColor=#999999;endFill=1;" edge="1" parent="1" source="pWWIoXjgKV-4vE8Mswgo-647" target="pWWIoXjgKV-4vE8Mswgo-648">
          <mxGeometry relative="1" as="geometry" />
        </mxCell>
        <mxCell id="pWWIoXjgKV-4vE8Mswgo-692" value="" style="curved=1;endArrow=blockThin;startArrow=none;strokeColor=#999999;endFill=1;" edge="1" parent="1" source="pWWIoXjgKV-4vE8Mswgo-647" target="pWWIoXjgKV-4vE8Mswgo-649">
          <mxGeometry relative="1" as="geometry" />
        </mxCell>
        <mxCell id="pWWIoXjgKV-4vE8Mswgo-693" value="" style="curved=1;endArrow=blockThin;startArrow=none;strokeColor=#999999;endFill=1;" edge="1" parent="1" source="pWWIoXjgKV-4vE8Mswgo-643" target="pWWIoXjgKV-4vE8Mswgo-650">
          <mxGeometry relative="1" as="geometry" />
        </mxCell>
        <mxCell id="pWWIoXjgKV-4vE8Mswgo-694" value="" style="curved=1;endArrow=blockThin;startArrow=none;strokeColor=#999999;endFill=1;" edge="1" parent="1" source="pWWIoXjgKV-4vE8Mswgo-650" target="pWWIoXjgKV-4vE8Mswgo-651">
          <mxGeometry relative="1" as="geometry" />
        </mxCell>
        <mxCell id="pWWIoXjgKV-4vE8Mswgo-695" value="" style="curved=1;endArrow=blockThin;startArrow=none;strokeColor=#999999;endFill=1;" edge="1" parent="1" source="pWWIoXjgKV-4vE8Mswgo-650" target="pWWIoXjgKV-4vE8Mswgo-652">
          <mxGeometry relative="1" as="geometry" />
        </mxCell>
        <mxCell id="pWWIoXjgKV-4vE8Mswgo-696" value="" style="curved=1;endArrow=blockThin;startArrow=none;strokeColor=#999999;endFill=1;" edge="1" parent="1" source="pWWIoXjgKV-4vE8Mswgo-618" target="pWWIoXjgKV-4vE8Mswgo-653">
          <mxGeometry relative="1" as="geometry" />
        </mxCell>
        <mxCell id="pWWIoXjgKV-4vE8Mswgo-697" value="" style="curved=1;endArrow=blockThin;startArrow=none;strokeColor=#999999;endFill=1;" edge="1" parent="1" source="pWWIoXjgKV-4vE8Mswgo-625" target="pWWIoXjgKV-4vE8Mswgo-654">
          <mxGeometry relative="1" as="geometry" />
        </mxCell>
        <mxCell id="pWWIoXjgKV-4vE8Mswgo-698" value="" style="curved=1;endArrow=blockThin;startArrow=none;strokeColor=#999999;endFill=1;" edge="1" parent="1" source="pWWIoXjgKV-4vE8Mswgo-631" target="pWWIoXjgKV-4vE8Mswgo-655">
          <mxGeometry relative="1" as="geometry" />
        </mxCell>
      </root>
    </mxGraphModel>
  </diagram>
</mxfile>
